<svg width="38" height="38" viewBox="0 0 38 38" fill="none" xmlns="http://www.w3.org/2000/svg">
    <path d="M29.2019 0.25C29.9912 0.64462 30.3858 1.03924 30.3858 2.2231C30.3858 2.61772 30.3858 2.61777 30.3858 3.01239C30.3858 3.40701 30.3858 3.40691 30.7804 3.40691C31.5697 3.40691 32.3589 3.40691 33.1481 3.40691C35.5159 3.80153 37.489 5.38004 37.8836 7.74776C37.8836 8.14238 37.8836 8.53707 37.8836 8.93169C37.8836 11.694 37.8836 14.4563 37.8836 17.2186C37.8836 18.0079 37.0944 18.7972 36.3051 18.7972C35.5159 18.7972 34.7266 18.0079 34.7266 17.2186C34.7266 14.4563 34.7266 12.0886 34.7266 9.32622C34.7266 8.53698 34.7266 8.14236 34.332 7.35312C33.9374 6.56388 32.7535 6.1693 31.9643 6.1693C31.5697 6.1693 30.7804 6.1693 30.3858 6.1693C29.9912 6.1693 29.9912 6.16933 29.9912 6.56395C29.9912 6.95857 29.9912 7.35314 29.9912 7.74776C29.9912 8.537 29.2019 9.32622 28.4127 9.32622C27.6235 9.32622 26.8342 8.537 26.8342 7.74776C26.8342 7.35314 26.8342 6.95857 26.8342 6.56395C26.8342 6.56395 26.8342 6.1693 26.4396 6.1693C24.4665 6.1693 22.4934 6.1693 20.1257 6.1693C20.1257 6.1693 19.731 6.16933 19.731 6.56395C19.731 6.95857 19.731 7.35314 19.731 7.74776C19.731 8.537 18.9418 9.32622 18.1526 9.32622C17.3633 9.32622 16.5741 8.537 16.5741 7.74776C16.5741 7.35314 16.5741 6.95857 16.5741 6.56395C16.5741 6.16933 16.5741 6.1693 16.1795 6.1693C14.2064 6.1693 12.2333 6.1693 10.2602 6.1693C9.86556 6.1693 9.86554 6.16933 9.86554 6.56395C9.86554 6.95857 9.86554 7.35314 9.86554 7.74776C9.86554 8.537 9.07632 9.32622 8.28708 9.32622C7.49784 9.32622 6.70859 8.537 6.70859 7.74776C6.70859 7.35314 6.70859 6.95857 6.70859 6.56395V6.1693C5.91935 6.1693 5.13012 6.1693 4.34088 6.1693C2.7624 6.56392 2.36778 7.74774 2.36778 9.32622C2.36778 16.4294 2.36778 23.5326 2.36778 30.6358C2.36778 31.0304 2.36778 31.425 2.36778 32.2143C2.36778 33.3981 3.55163 34.582 4.73549 34.582C5.13011 34.582 5.52471 34.582 5.91933 34.582C9.47092 34.582 13.0225 34.582 16.1795 34.582C16.9687 34.582 17.3633 34.9766 17.7579 35.7658C17.7579 36.5551 17.3633 36.9497 16.9687 37.3443C13.0225 37.3443 8.68169 37.3443 4.73549 37.3443C2.36777 36.9497 1.18392 35.7658 0.394675 33.3981C0.394675 33.0035 3.05176e-05 32.6089 3.05176e-05 32.2143C3.05176e-05 24.3219 3.05176e-05 16.0348 3.05176e-05 8.14241C0.394651 5.77468 1.97316 3.80153 4.34088 3.40691C5.13012 3.40691 5.52474 3.40691 6.31398 3.40691C6.7086 3.40691 7.1032 3.40691 7.49782 3.40691C7.89244 3.40691 7.49782 2.61772 7.49782 2.2231C7.49782 1.43386 7.89245 0.64462 8.68169 0.25C9.07631 0.25 9.0763 0.25 9.47092 0.25C10.2602 0.64462 10.6548 1.03924 10.6548 2.2231C10.6548 2.61772 10.6548 2.61777 10.6548 3.01239C10.6548 3.40701 10.6548 3.40691 11.0494 3.40691C13.0225 3.40691 14.9956 3.40691 16.9687 3.40691C17.3633 3.40691 17.3633 3.40701 17.3633 3.01239C17.3633 2.61777 17.3633 2.61772 17.3633 2.2231C17.3633 1.43386 17.758 0.64462 18.5472 0.25C18.9418 0.25 18.9418 0.25 19.3364 0.25C20.1257 0.64462 20.5203 1.03924 20.5203 2.2231C20.5203 2.61772 20.5203 2.61777 20.5203 3.01239C20.5203 3.40701 20.5203 3.40691 20.9149 3.40691C22.888 3.40691 24.8611 3.40691 26.8342 3.40691C27.2288 3.40691 27.2288 3.40701 27.2288 3.01239C27.2288 2.61777 27.2288 2.61772 27.2288 2.2231C27.2288 1.43386 27.6235 0.64462 28.4127 0.25C28.8073 0.25 28.8073 0.25 29.2019 0.25Z" fill="white"/>
    <path d="M28.0182 37.3443C27.6235 37.3443 27.2289 37.3443 27.2289 36.9497C23.6773 36.1604 21.3096 33.7928 20.5204 30.2412C19.7311 26.295 21.7042 22.3488 25.2558 20.7703C28.4128 19.1919 31.5697 19.5864 34.7267 21.9542C36.6998 23.5326 37.4891 25.1111 37.8837 27.4788C38.2783 31.425 36.3052 34.9767 32.7536 36.5552C31.9644 36.9498 31.1751 36.9497 30.3859 37.3443C29.5966 37.3443 28.8074 37.3443 28.0182 37.3443ZM35.1213 28.6628C35.1213 25.5058 32.359 22.7434 29.202 22.7434C26.045 22.7434 23.2827 25.5058 23.2827 28.6628C23.2827 31.8197 26.045 34.5821 29.202 34.5821C32.359 34.5821 35.1213 31.8197 35.1213 28.6628Z" fill="white"/>
    <path d="M9.86573 16.824C9.07649 16.824 8.28727 16.0347 8.28727 15.2454C8.28727 14.4562 9.07649 13.667 9.86573 13.667C10.655 13.667 11.4442 14.4562 11.4442 15.2454C11.4442 16.4293 11.0496 16.824 9.86573 16.824Z" fill="white"/>
    <path d="M17.7577 15.64C17.7577 16.4292 16.9685 17.2184 16.1793 17.2184C15.39 17.2184 14.6008 16.4292 14.6008 15.64C14.6008 14.8507 15.39 14.0615 16.1793 14.0615C16.9685 14.0615 17.7577 14.8507 17.7577 15.64Z" fill="white"/>
    <path d="M30.4985 15.64C30.4985 16.4292 29.7093 17.2184 28.9201 17.2184C28.1308 17.2184 27.3416 16.4292 27.3416 15.64C27.3416 14.8507 28.1308 14.0615 28.9201 14.0615C29.7093 14.0615 30.4985 14.8507 30.4985 15.64Z" fill="white"/>
    <path d="M30.3859 15.64C30.3859 16.4292 29.5967 17.2184 28.8074 17.2184C28.0182 17.2184 27.2289 16.4292 27.2289 15.64C27.2289 14.8507 28.0182 14.0615 28.8074 14.0615C29.5967 14.0615 30.3859 14.8507 30.3859 15.64Z" fill="white"/>
    <path d="M9.86573 20.376C10.655 20.376 11.4442 21.1652 11.4442 21.9544C11.4442 22.7437 10.655 23.5329 9.86573 23.5329C9.07649 23.5329 8.28727 22.7437 8.28727 21.9544C8.68189 20.7706 9.07649 20.376 9.86573 20.376Z" fill="white"/>
    <path d="M17.7577 21.5599C17.7577 22.3491 16.9685 23.1384 16.1793 23.1384C15.39 23.1384 14.6008 22.3491 14.6008 21.5599C14.6008 20.7707 15.39 19.9814 16.1793 19.9814C16.9685 20.3761 17.7577 20.7707 17.7577 21.5599Z" fill="white"/>
    <path d="M11.4442 27.8734C11.4442 28.6626 10.655 29.4518 9.86573 29.4518C9.07649 29.4518 8.28727 28.6626 8.28727 27.8734C8.28727 27.0841 9.07649 26.2949 9.86573 26.2949C11.0496 26.6895 11.4442 27.0841 11.4442 27.8734Z" fill="white"/>
    <path d="M16.1793 26.6895C16.9685 26.6895 17.7577 27.4787 17.7577 28.2679C17.7577 29.0572 16.9685 29.8464 16.1793 29.8464C15.39 29.8464 14.6008 29.0572 14.6008 28.2679C14.9954 27.084 15.39 26.6895 16.1793 26.6895Z" fill="white"/>
    <path d="M30.3862 29.8462C29.9916 29.8462 29.597 29.8462 29.2024 29.8462C28.4131 29.8462 27.6239 29.057 27.6239 28.2677C27.6239 27.0839 27.6239 26.2945 27.6239 25.1107C27.6239 24.3214 28.4131 23.5322 29.2024 23.5322C29.9916 23.5322 30.7808 24.3214 30.7808 25.1107C30.7808 25.5053 30.7808 25.9 30.7808 26.2946C30.7808 26.6892 30.7808 26.6893 31.1755 26.6893C31.5701 26.6893 31.5701 26.6893 31.9647 26.6893C32.754 27.0839 33.1486 27.4785 32.7539 28.2677C32.7539 29.057 31.9647 29.4515 31.5701 29.4515C31.1755 29.8462 30.7809 29.8462 30.3862 29.8462Z" fill="white"/>
</svg>
