<svg width="76" height="77" viewBox="0 0 76 77" fill="none" xmlns="http://www.w3.org/2000/svg">
    <path d="M76 38.6191C76 59.6404 59.0213 76.6191 38 76.6191C16.9787 76.6191 0 59.6404 0 38.6191C0 17.5979 16.9787 0.619141 38 0.619141C59.0213 0.619141 76 17.5979 76 38.6191Z" fill="white"/>
    <path d="M76 38.6191C76 59.6404 59.0213 76.6191 38 76.6191C16.9787 76.6191 0 59.6404 0 38.6191C0 17.5979 16.9787 0.619141 38 0.619141C59.0213 0.619141 76 17.5979 76 38.6191ZM38 12.5158C23.5623 12.5158 11.8967 24.1814 11.8967 38.6191C11.8967 53.0568 23.5623 64.7225 38 64.7225C52.4377 64.7225 64.1033 53.0568 64.1033 38.6191C64.1033 24.1814 52.4377 12.5158 38 12.5158Z" fill="#4FC7F3"/>
    <path d="M49.6656 35.732L54.8631 29.1484H49.5501L47.009 32.3825L49.6656 35.732Z" fill="#EB2227"/>
    <path d="M39.9638 32.3825C41.0033 32.3825 41.9273 32.8445 42.5048 33.653C42.7358 33.884 42.8513 33.9995 42.9668 34.2305C43.5443 35.039 43.7753 35.27 44.1218 35.732C43.7753 36.194 43.5443 36.425 42.9668 37.2335C42.8513 37.58 42.7358 37.58 42.5048 37.9265C41.8118 38.7351 41.0033 39.1971 39.9638 39.1971C38.1157 39.1971 36.6142 37.6955 36.6142 35.8475C36.6142 33.9995 38.1157 32.3825 39.9638 32.3825ZM37.4227 42.7776C36.7297 42.6621 36.1522 42.3156 35.9212 42.0846C33.8422 40.8141 32.4562 38.5041 32.4562 35.732C32.4562 31.574 35.8057 28.2244 39.9638 28.2244C42.0428 28.2244 44.1218 29.0329 45.7388 30.881L45.8543 30.9965H45.9698L37.7692 16.9053L22.754 42.8931L37.4227 42.7776ZM42.6203 42.7776L52.6689 42.8931V42.7776C52.6689 42.7776 52.5534 42.7776 52.3224 42.7776C51.6294 42.6621 51.1674 42.5466 50.7054 42.3156C49.2039 41.7381 47.9334 40.4676 46.7783 39.1971C46.7783 39.1971 45.9698 40.2366 45.2768 41.0451C44.3528 42.0846 43.1978 42.6621 42.6203 42.7776Z" fill="#085CA8"/>
    <path d="M52.2068 52.3638V45.4337H53.5928V49.2453L55.3254 47.3973H56.9424L55.0944 49.3608L57.1734 52.4793H55.5564L54.1704 50.2848L53.5928 50.8623V52.4793H52.2068M42.9667 52.3638H41.5807V45.4337H43.8907C45.6232 45.3182 46.7783 46.1267 46.7783 47.6283C46.7783 49.4763 45.5077 49.9383 43.7752 49.9383C43.7752 49.9383 43.4287 49.9383 42.9667 49.9383V52.3638ZM42.9667 46.5888V48.7833H44.0062C44.8147 48.7833 45.3922 48.4368 45.2767 47.7438C45.2767 46.9353 44.6992 46.5888 43.8907 46.7043H42.9667V46.5888ZM48.0488 48.8988H46.7783C46.7783 48.6678 46.7783 47.1663 48.9728 47.1663C50.1278 47.1663 51.1673 47.5128 51.1673 48.8988V51.7863C51.1673 51.9018 51.1673 52.0173 51.2828 52.1328C51.2828 52.2483 51.3983 52.2483 51.3983 52.3638H50.0123C50.0123 52.3638 50.0123 52.2483 49.8968 52.0173C49.8968 51.9018 49.8968 51.9018 49.8968 51.7863C49.8968 51.7863 49.6658 52.4793 48.5108 52.4793C47.5868 52.4793 46.5473 51.9018 46.4318 50.9778C46.4318 50.4003 46.7783 49.8228 47.2403 49.5918C47.5868 49.3608 48.1643 49.2453 48.9728 49.1298C49.4348 49.0143 49.6658 49.0143 49.7813 48.6678C49.7813 48.3213 49.4348 48.0903 48.9728 48.0903C48.0488 48.2058 48.0488 48.8988 48.0488 48.8988ZM49.8968 50.5158V49.8228C49.8968 49.8228 49.8968 49.8228 49.7813 49.9383C49.5503 50.0538 49.3193 50.0538 48.9728 50.1693C48.6263 50.2848 47.8178 50.4003 47.9333 50.8623C47.9333 51.4398 48.5108 51.5553 48.9728 51.4398C49.5503 51.4398 49.8968 51.0933 49.8968 50.5158ZM21.2524 52.3638V46.7043H23.3314V45.4337H17.6719V46.7043H19.7509V52.3638H21.2524ZM22.2919 50.0538C22.1764 48.5523 23.2159 47.2818 24.7175 47.2818C27.4895 47.2818 27.374 50.2848 27.374 50.2848H23.678C23.678 50.2848 23.678 51.4398 24.9485 51.4398C25.757 51.4398 25.988 50.8623 25.988 50.8623L27.374 50.9778C27.374 50.9778 27.0275 52.5948 24.9485 52.5948C23.909 52.5948 22.4074 51.9018 22.2919 50.0538ZM24.833 48.3213C23.7935 48.3213 23.7935 49.2453 23.7935 49.2453H25.988C25.8725 49.2453 25.757 48.3213 24.833 48.3213ZM31.3011 52.3638H32.6871V50.0538C32.6871 49.4763 32.8026 48.8988 33.3801 48.5523C33.7266 48.4368 33.9576 48.4368 34.1886 48.4368V47.2818C34.1886 47.2818 33.9576 47.2818 33.8421 47.2818C33.3801 47.2818 32.9181 47.5128 32.6871 47.9748C32.6871 47.9748 32.6871 48.0903 32.5716 48.0903V47.3973H31.3011V52.3638ZM27.4895 48.3213H28.1825V50.8623C28.1825 51.3243 28.1825 51.7863 28.6445 52.1328C28.991 52.4793 29.5685 52.3638 30.146 52.3638C30.377 52.3638 30.608 52.3638 30.608 52.3638V51.3243H30.2615C30.0305 51.3243 29.915 51.3243 29.7995 51.2088C29.684 51.0933 29.684 50.8623 29.684 50.7468V48.3213H30.608V47.3973H29.684V45.7802H28.298V47.3973H27.605V48.3213M35.6901 48.8988H34.4196C34.4196 48.6678 34.4196 47.1663 36.6141 47.1663C37.7691 47.1663 38.8087 47.5128 38.8087 49.0143V51.9018C38.8087 52.0173 38.8087 52.1328 38.9242 52.2483C38.9242 52.3638 39.0397 52.3638 39.0397 52.4793H37.6536C37.6536 52.4793 37.6536 52.3638 37.5381 52.1328C37.5381 52.0173 37.5381 52.0173 37.5381 51.9018C37.5381 51.9018 37.3071 52.5948 36.1521 52.5948C35.2281 52.5948 34.1886 52.0173 34.0731 51.0933C34.0731 50.5158 34.4196 49.9383 34.8816 49.7073C35.2281 49.4763 35.8056 49.3608 36.6141 49.2453C37.0761 49.1298 37.3071 49.1298 37.3071 48.7833C37.3071 48.4368 36.9606 48.2058 36.4986 48.2058C35.6901 48.2058 35.6901 48.8988 35.6901 48.8988ZM37.5381 50.5158V49.8228C37.5381 49.8228 37.5381 49.8228 37.4226 49.9383C37.1916 50.0538 36.9606 50.0538 36.6141 50.1693C36.2676 50.2848 35.4591 50.4003 35.5746 50.8623C35.5746 51.4398 36.1521 51.5553 36.6141 51.4398C37.1916 51.4398 37.5381 51.0933 37.5381 50.5158Z" fill="#085CA8"/>
    <path d="M59.4836 42.8936C60.7541 42.8936 61.6781 43.9331 61.6781 45.0881C61.6781 46.3586 60.6386 47.2826 59.4836 47.2826C58.2131 47.2826 57.2891 46.2431 57.2891 45.0881C57.2891 43.9331 58.3286 42.8936 59.4836 42.8936ZM59.4836 46.9361C60.5231 46.9361 61.3316 46.1276 61.3316 45.0881C61.3316 44.0486 60.5231 43.2401 59.4836 43.2401C58.4441 43.2401 57.6356 44.0486 57.6356 45.0881C57.6356 46.1276 58.4441 46.9361 59.4836 46.9361ZM58.6751 43.8176H59.7146C60.2921 43.8176 60.6386 44.0486 60.6386 44.6261C60.6386 45.0881 60.4076 45.3191 60.0611 45.3191L60.7541 46.3586H60.0611L59.3681 45.3191H59.0216V46.3586H58.5596V43.8176H58.6751ZM59.1371 44.9726H59.4836C59.8301 44.9726 60.0611 44.9726 60.0611 44.6261C60.0611 44.2796 59.7146 44.2796 59.4836 44.2796H59.1371V44.9726Z" fill="#085CA8"/>
    <path fill-rule="evenodd" clip-rule="evenodd" d="M8.43167 33.9987C8.43167 35.0382 7.50765 35.8467 6.46814 35.8467C5.42863 35.8467 4.62012 34.9227 4.62012 33.8832C4.62012 32.8437 5.54413 32.0352 6.58364 32.0352C7.62316 32.0352 8.43167 32.8437 8.43167 33.9987Z" fill="white"/>
    <path fill-rule="evenodd" clip-rule="evenodd" d="M67.5684 33.9987C67.5684 35.0382 68.4924 35.8467 69.5319 35.8467C70.5714 35.8467 71.3799 34.9227 71.3799 33.8832C71.3799 32.8437 70.4559 32.0352 69.4164 32.0352C68.3769 32.0352 67.5684 32.8437 67.5684 33.9987Z" fill="white"/>
    <path d="M11.6657 50.1699L12.4742 51.4404L9.47121 54.559L13.7448 53.404L14.4378 54.559L11.5502 58.024L15.7083 56.638L16.5168 57.9085L9.93322 59.872L9.24021 58.8325L12.2432 55.1365L7.62318 56.407L6.93018 55.3675L11.6657 50.1699Z" fill="white"/>
    <path d="M17.5563 58.3701L18.7113 59.2941L17.0943 61.1422L19.1733 62.9902L20.7903 61.1422L21.9454 62.0662L17.6718 67.0327L16.5168 66.1087L18.3648 63.9142L16.1703 62.1817L14.3223 64.3762L13.1672 63.4522L17.5563 58.3701Z" fill="white"/>
    <path d="M24.371 63.4521L25.4105 64.0297L24.9485 71.0752L23.5625 70.2667L23.678 68.7652L21.3679 67.6102L20.2129 68.5342L18.8269 67.8412L24.371 63.4521ZM24.0245 65.4157L22.4075 66.8017L23.7935 67.4947L24.0245 65.4157Z" fill="white"/>
    <path d="M28.6446 66.6859L26.9121 66.1084L27.2586 64.8379L32.2252 66.3394L31.8787 67.6099L30.0307 67.1479L28.5291 72.23L27.1431 71.768L28.6446 66.6859Z" fill="white"/>
    <path d="M33.842 69.2278L32.687 69.1123L33.7265 66.5713L34.997 66.8023L33.842 69.2278Z" fill="white"/>
    <path d="M39.1551 68.5343C38.9241 68.1878 38.462 68.0723 38.1155 68.0723C37.6535 68.0723 37.1915 68.1878 37.076 68.7653C37.076 69.9203 40.0791 69.2273 40.0791 71.5373C40.0791 73.0388 38.9241 73.6163 37.538 73.6163C36.7295 73.6163 35.921 73.3853 35.3435 72.8078L36.383 71.6528C36.7295 71.9993 37.1915 72.2303 37.6535 72.3458C38.1155 72.3458 38.693 72.1148 38.693 71.6528C38.693 70.4978 35.69 71.0753 35.69 68.8808C35.69 67.4948 36.9605 66.8018 38.231 66.8018C38.9241 66.8018 39.7326 67.0328 40.1946 67.4948L39.1551 68.5343Z" fill="white"/>
    <path d="M51.6293 70.382C50.9363 71.075 50.1278 71.537 49.2038 71.8835C47.2403 72.5765 45.3922 71.768 44.8147 69.689C44.1217 67.7254 45.1612 65.9929 47.1248 65.2999C48.1643 64.9534 49.0883 64.9534 49.8968 65.2999L49.3193 66.6859C48.8573 66.4549 48.2798 66.3394 47.5868 66.5704C46.4317 66.9169 45.9697 68.072 46.3162 69.227C46.6627 70.382 47.7023 70.9595 48.8573 70.613C49.4348 70.382 49.7813 70.151 50.0123 69.92L49.6658 68.765L48.5108 69.1115L48.0488 67.841L50.4743 67.0324L51.6293 70.382Z" fill="white"/>
    <path d="M53.2464 62.2971C54.9789 61.1421 56.9425 61.4886 58.0975 63.2211C59.2525 64.9536 58.675 66.9172 56.9425 68.0722C55.2099 69.2272 53.2464 68.8807 52.0914 67.1482C50.9364 65.3001 51.5139 63.4521 53.2464 62.2971ZM56.2494 66.9172C57.289 66.2242 57.52 65.0691 56.827 64.0296C56.1339 62.9901 54.9789 62.6436 53.9394 63.3366C52.8999 64.0296 52.6689 65.1846 53.3619 66.2241C54.0549 67.3792 55.2099 67.6102 56.2494 66.9172Z" fill="white"/>
    <path d="M58.7904 57.5618C60.1764 56.0602 62.1399 55.8292 63.757 57.3308C65.2585 58.7168 65.2585 60.7958 63.8725 62.2973C62.4864 63.7988 60.5229 64.0298 58.9059 62.5283C57.4044 61.1423 57.4044 59.0633 58.7904 57.5618ZM62.833 61.3733C63.6415 60.4493 63.526 59.2943 62.602 58.4858C61.6779 57.6773 60.5229 57.6773 59.7144 58.6013C58.9059 59.5253 59.0214 60.6803 59.9454 61.4888C60.8694 62.1818 62.0244 62.2973 62.833 61.3733Z" fill="white"/>
    <path d="M61.678 54.3277L62.7175 52.3642C63.757 50.5162 65.374 49.3611 67.4531 50.5162C69.3011 51.5557 69.5321 53.5192 68.6081 55.2517L67.4531 57.3307L61.678 54.3277ZM66.991 55.4827L67.3376 54.7897C67.9151 53.6347 68.0306 52.4797 66.6445 51.7867C65.4895 51.2092 64.45 51.7867 63.8725 52.9417L63.526 53.7502L66.991 55.4827Z" fill="white"/>
    <path d="M11.8967 14.9418L13.6293 13.2093C14.5533 12.2853 15.7083 11.8232 16.7478 12.8628C17.7873 14.0178 17.4408 15.0573 16.4013 15.9813L15.7083 16.7898L17.4408 18.6378L16.4013 19.6774L11.8967 14.9418ZM14.8998 15.9813L15.5928 15.2883C15.9393 14.9418 16.1703 14.4798 15.8238 14.0178C15.3618 13.5558 14.7843 13.9023 14.4378 14.3643L13.8603 14.8263L14.8998 15.9813Z" fill="white"/>
    <path d="M17.5564 9.97512L19.6354 8.5891C20.7904 7.89609 21.9455 7.66509 22.754 8.93561C23.216 9.74412 23.216 10.5526 22.523 11.2456L25.4105 12.7472L23.909 13.6712L21.4834 12.1696L20.7904 12.5162L22.1765 14.7107L20.9059 15.5192L17.5564 9.97512ZM20.2129 11.4766L20.9059 11.0146C21.3679 10.7836 21.9455 10.4371 21.599 9.85962C21.2524 9.28211 20.6749 9.51311 20.2129 9.85962L19.4044 10.3216L20.2129 11.4766Z" fill="white"/>
    <path d="M27.7204 4.89344C29.6839 4.31594 31.5319 5.12445 32.1095 7.20347C32.687 9.167 31.6475 10.8995 29.6839 11.477C27.7204 12.0545 25.8724 11.246 25.2949 9.167C24.7174 7.20347 25.7569 5.47095 27.7204 4.89344ZM29.3374 10.2065C30.4924 9.86001 31.0699 8.70499 30.7234 7.54998C30.3769 6.39496 29.3374 5.81746 28.1824 6.16396C27.0274 6.51046 26.4499 7.54998 26.7964 8.82049C27.1429 9.86001 28.1824 10.553 29.3374 10.2065Z" fill="white"/>
    <path d="M35.2281 4.89312L33.38 5.00862L33.2645 3.73811L38.4621 3.3916L38.5776 4.66212L36.7296 4.77762L36.9606 10.0907L35.5746 10.2062L35.2281 4.89312Z" fill="white"/>
    <path d="M41.1186 3.62305L45.5077 4.31606L45.2766 5.58657L42.2736 5.12457L42.0426 6.27958L45.0456 6.74159L44.8146 8.0121L42.0426 7.5501L41.8116 8.82061L44.9301 9.28262L44.6991 10.5531L40.1946 9.86013L41.1186 3.62305Z" fill="white"/>
    <path d="M52.2068 8.24223C51.9758 7.89572 51.7448 7.54922 51.1673 7.31821C50.1278 6.85621 49.0883 7.43372 48.6263 8.58873C48.1642 9.74375 48.6263 10.8988 49.5503 11.2453C50.1278 11.4763 50.5898 11.3608 51.0518 11.1298L51.8603 12.4003C51.0518 12.8623 50.1278 12.8623 49.2038 12.5158C47.3557 11.7073 46.4317 9.97475 47.2402 8.01122C48.0487 6.0477 49.8968 5.35469 51.7448 6.1632C52.4378 6.3942 53.1308 6.97171 53.4773 7.89572L52.2068 8.24223Z" fill="white"/>
    <path d="M56.4803 10.206L54.9788 9.16647L55.6718 8.12695L59.9454 11.0145L59.2524 12.054L57.6354 11.0145L54.6323 15.4035L53.4773 14.595L56.4803 10.206Z" fill="white"/>
    <path d="M63.0639 16.212C63.0639 15.8655 62.9484 15.4035 62.6019 15.1725C62.3709 14.826 61.7934 14.595 61.4469 14.9415C60.6384 15.75 63.1794 17.367 61.5624 18.984C60.5229 20.0236 59.2523 19.6771 58.2128 18.6375C57.6353 18.06 57.2888 17.367 57.2888 16.443H58.7903C58.6748 16.905 58.9058 17.4825 59.2523 17.829C59.5988 18.1755 60.0609 18.4065 60.4074 18.06C61.2159 17.2515 58.6748 15.519 60.2919 13.902C61.3314 12.978 62.7174 13.3245 63.5259 14.2485C63.9879 14.826 64.4499 15.4035 64.4499 16.212H63.0639Z" fill="white"/>
</svg>
