<svg width="37" height="37" viewBox="0 0 37 37" fill="none" xmlns="http://www.w3.org/2000/svg">
    <path d="M37 18.5002C37 28.7295 28.7294 37 18.5 37C8.27059 37 0 28.7295 0 18.5002C0 8.27095 8.27059 0.000469585 18.5 0.000469585C28.6569 -0.0720785 37 8.27095 37 18.5002Z" fill="#0D6C9C"/>
    <path d="M12.9254 16.925C12.5004 16.5 12.3504 15.9625 12.5004 15.4875C12.6129 15.1375 12.7754 14.9125 13.3004 14.3875L16.7504 10.9375C17.2129 10.475 17.7504 10.1 18.5004 10.1C19.0004 10.1 19.4129 10.275 19.7004 10.5625C20.1379 11.0125 20.1754 11.5875 20.1754 12.2125V25.875C20.1754 26.6625 20.1379 26.975 19.9629 27.325C19.7254 27.8 19.2129 28.1 18.5504 28.1C17.8879 28.1 17.3754 27.8 17.1379 27.325C16.9629 26.975 16.9254 26.6625 16.9254 25.875V15.0875L15.4629 16.55C14.9379 17.075 14.7254 17.2375 14.3754 17.35C13.9004 17.5125 13.3629 17.35 12.9254 16.925Z" fill="white"/>
</svg>
