<svg width="21" height="21" viewBox="0 0 21 21" fill="none" xmlns="http://www.w3.org/2000/svg">
    <path d="M12.7047 4.78591C13.5681 4.95437 14.3616 5.37664 14.9837 5.99867C15.6057 6.62071 16.028 7.41421 16.1964 8.27763M12.7047 1.25C14.4985 1.44928 16.1713 2.25259 17.4484 3.52802C18.7254 4.80345 19.5308 6.4752 19.7323 8.26879M18.8484 15.3229V17.9749C18.8494 18.2211 18.7989 18.4647 18.7003 18.6903C18.6017 18.9159 18.457 19.1184 18.2756 19.2848C18.0942 19.4512 17.88 19.5779 17.6468 19.6568C17.4136 19.7357 17.1665 19.765 16.9213 19.7428C14.2011 19.4473 11.5882 18.5178 9.29256 17.029C7.15671 15.6718 5.34589 13.861 3.98869 11.7251C2.49475 9.41902 1.56503 6.79342 1.27488 4.06105C1.25279 3.8166 1.28184 3.57023 1.36018 3.33762C1.43852 3.10502 1.56444 2.89127 1.72992 2.71C1.89539 2.52872 2.0968 2.38389 2.32132 2.28472C2.54584 2.18554 2.78855 2.13421 3.03399 2.13398H5.68593C6.11493 2.12976 6.53083 2.28167 6.8561 2.56141C7.18138 2.84115 7.39384 3.22962 7.45388 3.65442C7.56581 4.5031 7.7734 5.33639 8.07267 6.1384C8.1916 6.4548 8.21734 6.79866 8.14684 7.12923C8.07634 7.45981 7.91255 7.76325 7.67488 8.00359L6.55223 9.12625C7.81062 11.3393 9.64301 13.1717 11.8561 14.4301L12.9787 13.3075C13.2191 13.0698 13.5225 12.906 13.8531 12.8355C14.1837 12.765 14.5275 12.7907 14.8439 12.9097C15.6459 13.2089 16.4792 13.4165 17.3279 13.5285C17.7573 13.589 18.1495 13.8053 18.4298 14.1362C18.7102 14.4671 18.8591 14.8894 18.8484 15.3229Z" stroke="white" stroke-width="2" stroke-linecap="round" stroke-linejoin="round"/>
</svg>
