<svg width="37" height="37" viewBox="0 0 37 37" fill="none" xmlns="http://www.w3.org/2000/svg">
    <path d="M37 18.5002C37 28.7295 28.7294 37 18.5 37C8.27059 37 0 28.7295 0 18.5002C0 8.27095 8.27059 0.000469585 18.5 0.000469585C28.6569 -0.0720785 37 8.27095 37 18.5002Z" fill="#0D6C9C"/>
    <path d="M22.7754 11.675C22.7754 12.2875 22.4879 12.7375 22.0629 12.9625C21.7504 13.125 21.4629 13.15 20.7254 13.15H15.4504V16.925C15.9629 16.4625 16.9129 16.05 18.1504 16.05C19.6129 16.05 20.7504 16.525 21.4629 17.2375C22.8504 18.625 23.0629 20.3125 23.0629 21.9875C23.0629 24.0125 22.8004 25.3875 21.4879 26.7C20.7004 27.4875 19.4504 28.15 17.5254 28.15C15.8879 28.15 14.6754 27.8 13.6254 26.9125C12.8754 26.2625 12.2879 25.275 12.2879 24.1875C12.2879 23.6625 12.4504 23.2625 12.7379 22.9625C13.0129 22.675 13.4254 22.525 13.8754 22.525C14.3629 22.525 14.6379 22.625 14.8879 22.85C15.1504 23.075 15.2879 23.275 15.5129 23.85C15.9129 24.85 16.4879 25.2 17.5254 25.2C18.2129 25.2 18.7129 25.0375 19.1129 24.6375C19.6879 24.0625 19.8004 23.125 19.8004 21.9875C19.8004 19.95 19.2254 18.8 17.6004 18.8C16.7004 18.8 16.1129 19.0625 15.6379 19.5875C15.4379 19.8125 15.2379 19.9875 14.9879 20.1375C14.7504 20.275 14.5129 20.3375 14.1129 20.3375C13.6629 20.3375 13.3004 20.2375 12.9754 19.9125C12.6504 19.5875 12.5004 19.0875 12.5004 18.525V12.175C12.5004 11.7 12.5004 11.1 12.9504 10.65C13.4004 10.2 14.0004 10.2 14.4754 10.2H20.7254C21.4629 10.2 21.7504 10.225 22.0629 10.3875C22.4879 10.6125 22.7754 11.0625 22.7754 11.675Z" fill="white"/>
</svg>
