<svg width="37" height="37" viewBox="0 0 37 37" fill="none" xmlns="http://www.w3.org/2000/svg">
    <path d="M37 18.5002C37 28.7295 28.7294 37 18.5 37C8.27059 37 0 28.7295 0 18.5002C0 8.27095 8.27059 0.000469585 18.5 0.000469585C28.6569 -0.0720785 37 8.27095 37 18.5002Z" fill="#0D6C9C"/>
    <path d="M19.7879 11.525C19.7879 11.8875 19.7004 12.15 19.3754 12.8L17.0004 17.55C17.4254 17.3875 17.9004 17.325 18.3504 17.325C20.7504 17.325 23.0254 19.3 23.0254 22.6C23.0254 26.1 20.6254 28.15 17.4754 28.15C14.3254 28.15 11.9254 26.175 11.9254 22.65C11.9254 21.025 12.6254 19.525 13.4254 17.9L16.6504 11.4375C16.9754 10.7875 17.1379 10.55 17.4254 10.3375C17.6504 10.175 17.9129 10.1 18.2004 10.1C18.9879 10.1 19.7879 10.725 19.7879 11.525ZM19.7754 22.625C19.7754 21.05 18.8504 20.025 17.4754 20.025C16.1504 20.025 15.1754 20.975 15.1754 22.625C15.1754 24.25 16.1504 25.2 17.4754 25.2C18.8004 25.2 19.7754 24.25 19.7754 22.625Z" fill="white"/>
</svg>

