<svg width="37" height="37" viewBox="0 0 37 37" fill="none" xmlns="http://www.w3.org/2000/svg">
    <path d="M37 18.5002C37 28.7295 28.7294 37 18.5 37C8.27059 37 0 28.7295 0 18.5002C0 8.27095 8.27059 0.000469585 18.5 0.000469585C28.6569 -0.0720785 37 8.27095 37 18.5002Z" fill="#0D6C9C"/>
    <path d="M23.1254 26.525C23.1254 27.1375 22.8379 27.5875 22.4129 27.8125C22.1004 27.975 21.8129 28 21.0754 28H14.2379C13.5629 28 12.9629 27.9875 12.5254 27.525C12.2504 27.25 12.0754 26.85 12.0754 26.3625C12.0754 25.6625 12.4504 25.1625 12.9379 24.575L18.4629 17.875C19.2504 16.9125 19.7129 16.175 19.7129 15.05C19.7129 13.875 18.9629 13 17.5754 13C16.4504 13 15.7879 13.4875 15.3129 14.6875C15.1379 15.1125 14.9379 15.3875 14.6754 15.6125C14.4879 15.7625 14.1629 15.8875 13.7504 15.8875C13.2379 15.8875 12.8629 15.7375 12.5879 15.4C12.3129 15.0625 12.2004 14.675 12.2004 14.2375C12.2004 13.2625 12.7629 12.075 13.7004 11.3C14.6879 10.4875 15.8254 10.05 17.5129 10.05C20.7879 10.05 22.9754 11.8 22.9754 14.975C22.9754 16.9875 22.2629 17.95 20.6754 19.85L16.3504 25.05H21.0754C21.8129 25.05 22.1004 25.075 22.4129 25.2375C22.8379 25.4625 23.1254 25.9125 23.1254 26.525Z" fill="white"/>
</svg>
