<svg width="37" height="37" viewBox="0 0 37 37" fill="none" xmlns="http://www.w3.org/2000/svg">
    <path d="M37 18.5002C37 28.7295 28.7294 37 18.5 37C8.27059 37 0 28.7295 0 18.5002C0 8.27095 8.27059 0.000469585 18.5 0.000469585C28.6569 -0.0720785 37 8.27095 37 18.5002Z" fill="#0D6C9C"/>
    <path d="M18.0754 25.875V25.35H13.4504C12.6504 25.35 12.1254 25.2875 11.7004 24.925C11.3504 24.625 11.1504 24.175 11.1504 23.7C11.1504 23.3 11.3129 22.8875 11.5879 22.3375L17.0254 11.4375C17.3504 10.7875 17.5129 10.55 17.8004 10.3375C18.0254 10.175 18.2879 10.1 18.5754 10.1C19.3629 10.1 20.1629 10.725 20.1629 11.525C20.1629 11.8875 20.0754 12.15 19.7504 12.8L14.9629 22.4H18.0754V20.9125C18.0754 20.125 18.1129 19.8125 18.2879 19.4625C18.5254 18.9875 19.0379 18.6875 19.7004 18.6875C20.3629 18.6875 20.8754 18.9875 21.1129 19.4625C21.2879 19.8125 21.3254 20.125 21.3254 20.9125V22.4H21.8004C22.5379 22.4 22.8254 22.425 23.1379 22.5875C23.5629 22.8125 23.8504 23.2625 23.8504 23.875C23.8504 24.4875 23.5629 24.9375 23.1379 25.1625C22.8254 25.325 22.5379 25.35 21.8004 25.35H21.3254V25.875C21.3254 26.6625 21.2879 26.975 21.1129 27.325C20.8754 27.8 20.3629 28.1 19.7004 28.1C19.0379 28.1 18.5254 27.8 18.2879 27.325C18.1129 26.975 18.0754 26.6625 18.0754 25.875Z" fill="white"/>
</svg>
