<svg width="37" height="37" viewBox="0 0 37 37" fill="none" xmlns="http://www.w3.org/2000/svg">
    <path d="M37 18.5002C37 28.7295 28.7294 37 18.5 37C8.27059 37 0 28.7295 0 18.5002C0 8.27095 8.27059 0.000469585 18.5 0.000469585C28.6569 -0.0720785 37 8.27095 37 18.5002Z" fill="#0D6C9C"/>
    <path d="M12.0379 24.15C12.0379 23.65 12.1879 23.225 12.4629 22.9375C12.7504 22.625 13.1629 22.45 13.6504 22.45C14.1254 22.45 14.4004 22.55 14.6504 22.775C14.9129 23.0125 15.0754 23.25 15.2629 23.775C15.6004 24.75 16.1629 25.2 17.4754 25.2C18.7754 25.2 19.8379 24.3375 19.8379 22.75C19.8379 21.25 18.9879 20.375 17.4379 20.3125C17.1004 20.3 16.7879 20.2625 16.5129 20.1125C16.0879 19.8875 15.8379 19.45 15.8379 18.8875C15.8379 18.3375 16.0879 17.9 16.5129 17.675C16.7879 17.5375 17.1004 17.4875 17.4379 17.475C18.8004 17.425 19.6879 16.65 19.6879 15.225C19.6879 13.7875 18.7504 13 17.5004 13C16.4379 13 15.8879 13.4 15.5129 14.3375C15.3004 14.875 15.1629 15.1 14.9004 15.325C14.6504 15.55 14.3879 15.6375 13.9129 15.6375C13.0879 15.6375 12.4004 15.0625 12.4004 14.1C12.4004 13.7 12.4879 13.2625 12.6379 12.875C12.8504 12.3125 13.2254 11.725 13.6879 11.3125C14.7004 10.425 15.9379 10.05 17.5254 10.05C20.5629 10.05 22.9629 11.8625 22.9629 15.05C22.9629 17.075 21.9754 18.175 20.8004 18.8C22.0254 19.425 23.1129 20.6125 23.1129 22.925C23.1129 26.2875 20.6504 28.15 17.5004 28.15C15.6254 28.15 14.4379 27.8 13.3629 26.875C12.6129 26.225 12.0379 25.275 12.0379 24.15Z" fill="white"/>
</svg>
