<svg width="159" height="74" viewBox="0 0 159 74" fill="none" xmlns="http://www.w3.org/2000/svg">
    <path d="M46.2276 37.0896C45.5109 27.9516 42.4649 22.7555 32.6102 22.7555H29.5642C29.2058 22.7555 29.2058 23.293 29.2058 23.4722V71.1332C29.2058 72.3874 35.6562 72.3874 36.5521 72.5666V73.8209H11.4673V72.5666C12.3632 72.5666 18.8136 72.5666 18.8136 71.1332V24.0097C18.8136 22.5763 16.3051 22.9347 15.23 22.9347C5.3753 22.9347 2.3293 27.9516 1.61259 37.2688H0V21.1429H48.0194V37.2688H46.2276V37.0896Z" fill="#003A70"/>
    <path d="M89.5883 45.6901V23.8305C89.5883 22.9346 88.1549 22.9346 87.4382 22.7555L82.2421 22.2179V20.9637H106.61V22.2179C106.431 22.2179 99.8014 22.2179 99.8014 23.4722V70.954C99.8014 71.8499 101.235 71.8499 101.772 72.0291L106.61 72.5666V73.8208H82.2421V72.5666L87.4382 72.2082C88.1549 72.2082 89.5883 72.2082 89.5883 71.1332V47.661V45.6901ZM87.6174 47.661H67.3704V71.1332C67.3704 72.0291 68.8038 72.0291 69.3414 72.2082L74.5375 72.7458V74H50.3486V72.7458C50.5278 72.7458 57.1573 72.7458 57.1573 71.4915V23.6513C57.1573 22.2179 50.5278 22.3971 50.3486 22.3971V21.1429H74.7167V22.3971L69.5205 22.7555C68.983 22.7555 67.3704 22.7555 67.3704 23.8305V45.8693H87.4382V47.661H87.6174Z" fill="#003A70"/>
    <path d="M141.37 22.7554C141.908 22.7554 142.266 22.5763 142.804 22.5763C151.763 20.6053 158.751 14.155 158.751 14.155C152.659 11.8257 147.462 12.184 143.341 13.4383C142.804 13.6174 142.266 13.7966 141.729 13.9758C149.254 6.80872 149.971 0 149.971 0C143.162 2.86683 138.862 6.27119 135.995 9.67554C137.429 3.22518 133.487 0.716707 133.487 0.716707C133.487 0.716707 128.47 6.27119 127.753 12.184C125.961 10.5714 123.274 9.85472 118.615 10.9298C118.615 10.9298 117.361 16.6634 121.303 19.5303C120.944 19.5303 120.586 19.7094 120.048 19.8886C117.182 20.7845 113.598 22.5763 109.477 26.339C109.477 26.339 111.985 29.2058 117.898 27.9516C118.257 27.9516 118.615 27.7724 118.973 27.7724C115.927 30.6392 113.06 34.7603 110.91 40.8523C110.91 40.8523 117.719 39.7772 123.99 32.431C122.915 36.5521 122.198 41.7482 125.424 47.4818C130.978 40.8523 132.412 35.2978 132.591 30.8184C137.787 37.0896 147.821 36.1937 147.821 36.1937C147.462 28.4891 144.416 24.7264 141.37 22.7554Z" fill="url(#paint0_linear_11_510)"/>
    <path d="M125.603 47.1235C122.557 41.569 123.453 36.5521 124.349 32.6102L124.707 31.1768L123.811 32.2518C118.615 38.1646 113.061 39.9564 111.448 40.4939C113.24 35.477 115.927 31.3559 119.332 28.1308L120.228 27.2349L118.973 27.5932C118.615 27.7724 118.257 27.7724 118.078 27.7724C117.182 27.9516 116.286 28.1308 115.39 28.1308C112.523 28.1308 110.91 26.8765 110.194 26.5182C113.598 23.293 117.002 21.322 120.407 20.4261C120.765 20.247 121.124 20.247 121.661 20.0678L122.378 19.8886L121.84 19.5303C118.436 17.201 118.973 12.5424 119.153 11.4673C120.407 11.109 121.661 11.109 122.736 11.109C124.886 11.109 126.499 11.6465 127.753 12.9007L128.291 13.2591V12.7215C129.007 7.52542 132.949 2.68765 133.845 1.61259C134.562 2.15012 137.07 4.65859 135.995 10.0339L135.816 11.2881L136.174 10.0339C139.4 6.27118 143.879 3.22518 149.433 0.716705C149.075 2.50847 147.462 8.06295 141.191 13.7966L140.116 14.8717L141.729 14.3341C142.266 14.155 142.804 13.9758 143.341 13.7966C145.492 13.2591 147.642 12.9007 149.792 12.9007C152.479 12.9007 155.346 13.4383 158.034 14.3341C156.421 15.7676 150.15 20.6053 142.625 22.2179C142.087 22.3971 141.729 22.3971 141.191 22.3971L140.295 22.5763L141.012 23.1138C144.775 25.4431 146.925 29.7433 147.462 35.8354C147.283 35.8354 146.746 35.8354 146.387 35.8354C143.521 35.8354 136.712 35.2978 132.77 30.6392L132.232 29.9225V30.8184C132.053 34.5811 131.157 40.3148 125.603 47.1235Z" fill="url(#paint1_linear_11_510)"/>
    <path d="M147.462 12.5424C145.133 12.5424 134.741 15.4092 134.741 15.4092L132.591 5.91281L127.753 17.5593C127.753 17.5593 120.586 19.5302 117.54 21.1428L124.349 25.2639L117.719 37.9855C121.303 36.0145 129.545 28.4891 129.545 28.4891C129.545 28.4891 135.637 34.5811 139.937 35.477L136.174 22.0387L147.462 12.5424Z" fill="url(#paint2_linear_11_510)"/>
    <path d="M146.746 12.5424C142.804 12.7215 134.383 15.0508 134.383 15.0508L132.591 5.91281L127.216 17.2009C127.216 17.2009 120.048 19.3511 117.182 20.7845L123.99 24.7264L117.719 37.8063C121.124 35.8353 129.007 27.7724 129.007 27.7724C129.007 27.7724 134.741 33.6852 139.041 34.7603L135.816 21.6804L146.746 12.5424Z" fill="url(#paint3_linear_11_510)"/>
    <defs>
        <linearGradient id="paint0_linear_11_510" x1="113.49" y1="43.276" x2="153.34" y2="3.42572" gradientUnits="userSpaceOnUse">
            <stop stop-color="#F5EEE0"/>
            <stop offset="0.062986" stop-color="#F3EAD7"/>
            <stop offset="0.1695" stop-color="#EDDEC1"/>
            <stop offset="0.2857" stop-color="#E5D0A3"/>
            <stop offset="0.4911" stop-color="#C5AD6D"/>
            <stop offset="0.6384" stop-color="#A78D49"/>
            <stop offset="0.7849" stop-color="#917631"/>
            <stop offset="0.9103" stop-color="#846924"/>
            <stop offset="1" stop-color="#7F6421"/>
        </linearGradient>
        <linearGradient id="paint1_linear_11_510" x1="121.438" y1="38.3252" x2="141.577" y2="13.5194" gradientUnits="userSpaceOnUse">
            <stop stop-color="#D9B975"/>
            <stop offset="0.1589" stop-color="#B79854"/>
            <stop offset="0.2932" stop-color="#A58742"/>
            <stop offset="0.3839" stop-color="#9F813C"/>
            <stop offset="0.7009" stop-color="#E5D0A3"/>
            <stop offset="0.739" stop-color="#DDC697"/>
            <stop offset="0.8062" stop-color="#CBB27C"/>
            <stop offset="0.8945" stop-color="#B29555"/>
            <stop offset="1" stop-color="#937329"/>
        </linearGradient>
        <linearGradient id="paint2_linear_11_510" x1="120.965" y1="21.8679" x2="151.164" y2="21.8677" gradientUnits="userSpaceOnUse">
            <stop offset="0.1074" stop-color="white"/>
            <stop offset="0.1231" stop-color="#FCF6E0"/>
            <stop offset="0.1478" stop-color="#F9EDBC"/>
            <stop offset="0.1716" stop-color="#F7E7A0"/>
            <stop offset="0.1937" stop-color="#F6E28C"/>
            <stop offset="0.2137" stop-color="#F5E080"/>
            <stop offset="0.2296" stop-color="#F4DF7B"/>
            <stop offset="0.2446" stop-color="#F4DE78"/>
            <stop offset="0.261" stop-color="#F1D96C"/>
            <stop offset="0.2782" stop-color="#EDD257"/>
            <stop offset="0.2958" stop-color="#E8C839"/>
            <stop offset="0.3037" stop-color="#E4C328"/>
            <stop offset="0.3051" stop-color="#E5C329"/>
            <stop offset="0.3431" stop-color="#E7C84A"/>
            <stop offset="0.3749" stop-color="#E8CB5D"/>
            <stop offset="0.3963" stop-color="#E8CC64"/>
            <stop offset="0.4082" stop-color="#E9CE6E"/>
            <stop offset="0.4292" stop-color="#EBD485"/>
            <stop offset="0.4568" stop-color="#EFDEA9"/>
            <stop offset="0.4889" stop-color="#F4ECDB"/>
            <stop offset="0.4969" stop-color="#F5EDDD"/>
            <stop offset="0.6057" stop-color="#FBF8F3"/>
            <stop offset="0.6741" stop-color="white"/>
        </linearGradient>
        <linearGradient id="paint3_linear_11_510" x1="122.247" y1="35.8164" x2="144.896" y2="5.35815" gradientUnits="userSpaceOnUse">
            <stop offset="0.1429" stop-color="white"/>
            <stop offset="0.2094" stop-color="#FFFEFC"/>
            <stop offset="0.2388" stop-color="#FEFCF4"/>
            <stop offset="0.2609" stop-color="#FDF8E9"/>
            <stop offset="0.2793" stop-color="#FBF4DA"/>
            <stop offset="0.2954" stop-color="#FAF0C8"/>
            <stop offset="0.3099" stop-color="#F8EAB1"/>
            <stop offset="0.323" stop-color="#F6E597"/>
            <stop offset="0.3259" stop-color="#F6E390"/>
            <stop offset="0.4152" stop-color="#E9CB51"/>
            <stop offset="0.4363" stop-color="#E8CC66"/>
            <stop offset="0.4777" stop-color="#E7CE84"/>
            <stop offset="0.5402" stop-color="#EFDFB6"/>
            <stop offset="0.5893" stop-color="#F4ECDB"/>
            <stop offset="0.6079" stop-color="#F8F2E7"/>
            <stop offset="0.636" stop-color="#FBF8F3"/>
            <stop offset="0.6757" stop-color="#FEFDFB"/>
            <stop offset="0.7857" stop-color="white"/>
        </linearGradient>
    </defs>
</svg>
